<svg version="1.1" baseProfile="full" width="1024" height="1024" xmlns="http://www.w3.org/2000/svg">
	<!-- my official logo in the svg format (handmade) -->
	<g transform="translate(512, 512) scale(2, 2) translate(-200, 32)" stroke-width="8" stroke-linecap="round" stroke="black" fill="none">
		<!-- n -->
		<g transform="translate(0, 0)">
			<path d="
				M 0 0
				v -32
				a 32 32 0 0 1 64 0
				v 32" />
		</g>
		
		<!-- as -->
		<g transform="translate(84, 0)">
			<path d="
				M 64 -12
				V -32
				a 32 32 0 1 0 -32 32
				
				h 100
				
				a 16 16 0 0 0 0 -32
				h -32
				a 16 16 0 0 1 0 -32
				h 48" />
		</g>
		
		<!-- so -->
		<g transform="translate(252, 0)">
			<path d="
				M 0 0
				h 48
				a 16 16 0 0 0 0 -32
				h -32
				a 16 16 0 0 1 0 -32
				
				h 100
				a 32 32 0 1 1 -32 32
				v -20" />
		</g>
	</g>
</svg>
