# Blender v2.76 (sub 0) OBJ File: ''
# www.blender.org
v -1.000000 1.000000 -1.000000
v -1.000000 -1.000000 -1.000000
v -1.000000 -1.000000 1.000000
v 1.000000 1.000000 -1.000000
v 1.000000 -1.000000 -1.000000
v 1.000000 1.000000 1.000000
v 1.000000 -1.000000 1.000000
v -1.000000 1.000000 1.000000
vt 0.000000 0.000000
vt -1.000000 0.000000
vt -1.000000 1.000000
vt 0.000000 -1.000000
vt -1.000000 -1.000000
vt 1.000000 -1.000000
vt 1.000000 0.000000
vt 1.000000 1.000000
vt 0.000000 1.000000
vn -1.000000 -0.000000 0.000000
vn 0.000000 0.000000 -1.000000
vn 1.000000 0.000000 0.000000
vn 0.000000 -0.000000 1.000000
vn 0.000000 -1.000000 -0.000000
vn 0.000000 1.000000 0.000000
s 1
f 1/1/1 2/2/1 3/3/1
f 4/1/2 5/4/2 2/5/2
f 6/1/3 7/2/3 5/5/3
f 8/1/4 3/4/4 7/6/4
f 2/1/5 5/7/5 7/8/5
f 4/1/6 1/2/6 8/3/6
f 8/1/1 1/4/1 3/2/1
f 1/1/2 4/7/2 2/4/2
f 4/1/3 6/9/3 5/2/3
f 6/1/4 8/2/4 7/4/4
f 3/1/5 2/4/5 7/7/5
f 6/1/6 4/4/6 8/2/6
